<mxfile host="app.diagrams.net" modified="2023-11-07T12:21:54.629Z" agent="Mozilla/5.0 (Windows NT 10.0; Win64; x64) AppleWebKit/537.36 (KHTML, like Gecko) Chrome/119.0.0.0 Safari/537.36" etag="hy8rFtWrnT-qf0wQJ4rJ" version="22.0.8" type="github">
  <diagram name="Página-1" id="OcnpqpK2JgIhNqqkZlx_">
    <mxGraphModel dx="1941" dy="610" grid="1" gridSize="10" guides="1" tooltips="1" connect="1" arrows="1" fold="1" page="1" pageScale="1" pageWidth="827" pageHeight="1169" math="0" shadow="0">
      <root>
        <mxCell id="0" />
        <mxCell id="1" parent="0" />
        <mxCell id="TUw20xL3SOrRMRf1-5aS-1" value="&lt;font style=&quot;vertical-align: inherit;&quot;&gt;&lt;font style=&quot;vertical-align: inherit;&quot;&gt;GERENTE MANUTENÇÃO&lt;/font&gt;&lt;/font&gt;" style="shape=umlActor;verticalLabelPosition=bottom;verticalAlign=top;html=1;" parent="1" vertex="1">
          <mxGeometry x="730" y="600" width="30" height="60" as="geometry" />
        </mxCell>
        <mxCell id="TUw20xL3SOrRMRf1-5aS-2" value="&lt;font style=&quot;vertical-align: inherit;&quot;&gt;&lt;font style=&quot;vertical-align: inherit;&quot;&gt;GERENTE DE QUALIDADE&lt;/font&gt;&lt;/font&gt;" style="shape=umlActor;verticalLabelPosition=bottom;verticalAlign=top;html=1;" parent="1" vertex="1">
          <mxGeometry x="730" y="470" width="30" height="60" as="geometry" />
        </mxCell>
        <mxCell id="TUw20xL3SOrRMRf1-5aS-3" value="&lt;font style=&quot;vertical-align: inherit;&quot;&gt;&lt;font style=&quot;vertical-align: inherit;&quot;&gt;GERENTE DE ESTOQUE&lt;/font&gt;&lt;/font&gt;" style="shape=umlActor;verticalLabelPosition=bottom;verticalAlign=top;html=1;" parent="1" vertex="1">
          <mxGeometry x="730" y="360" width="30" height="60" as="geometry" />
        </mxCell>
        <mxCell id="TUw20xL3SOrRMRf1-5aS-4" value="&lt;font style=&quot;vertical-align: inherit;&quot;&gt;&lt;font style=&quot;vertical-align: inherit;&quot;&gt;SUPERVISOR&lt;/font&gt;&lt;/font&gt;" style="shape=umlActor;verticalLabelPosition=bottom;verticalAlign=top;html=1;" parent="1" vertex="1">
          <mxGeometry x="710" y="120" width="30" height="60" as="geometry" />
        </mxCell>
        <mxCell id="TUw20xL3SOrRMRf1-5aS-5" value="&lt;font style=&quot;vertical-align: inherit;&quot;&gt;&lt;font style=&quot;vertical-align: inherit;&quot;&gt;GERENTE DE PRODUÇÃO&lt;/font&gt;&lt;/font&gt;" style="shape=umlActor;verticalLabelPosition=bottom;verticalAlign=top;html=1;" parent="1" vertex="1">
          <mxGeometry x="710" y="15" width="30" height="60" as="geometry" />
        </mxCell>
        <mxCell id="TUw20xL3SOrRMRf1-5aS-6" value="&lt;font style=&quot;vertical-align: inherit;&quot;&gt;&lt;font style=&quot;vertical-align: inherit;&quot;&gt;GERENTE DE SUPRIMENTOS&lt;/font&gt;&lt;/font&gt;" style="shape=umlActor;verticalLabelPosition=bottom;verticalAlign=top;html=1;" parent="1" vertex="1">
          <mxGeometry x="-10" y="470" width="30" height="60" as="geometry" />
        </mxCell>
        <mxCell id="TUw20xL3SOrRMRf1-5aS-7" value="&lt;font style=&quot;vertical-align: inherit;&quot;&gt;&lt;font style=&quot;vertical-align: inherit;&quot;&gt;ATENTIMENTO AO CLIENTE&amp;nbsp;&lt;/font&gt;&lt;/font&gt;" style="shape=umlActor;verticalLabelPosition=bottom;verticalAlign=top;html=1;" parent="1" vertex="1">
          <mxGeometry x="-10" y="585" width="30" height="60" as="geometry" />
        </mxCell>
        <mxCell id="TUw20xL3SOrRMRf1-5aS-8" value="&lt;font style=&quot;vertical-align: inherit;&quot;&gt;&lt;font style=&quot;vertical-align: inherit;&quot;&gt;FINANCEIRO&lt;/font&gt;&lt;/font&gt;" style="shape=umlActor;verticalLabelPosition=bottom;verticalAlign=top;html=1;" parent="1" vertex="1">
          <mxGeometry x="-10" y="705" width="30" height="60" as="geometry" />
        </mxCell>
        <mxCell id="TUw20xL3SOrRMRf1-5aS-11" value="&lt;font style=&quot;vertical-align: inherit;&quot;&gt;&lt;font style=&quot;vertical-align: inherit;&quot;&gt;SUSTENTABILIDADE&lt;/font&gt;&lt;/font&gt;" style="shape=umlActor;verticalLabelPosition=bottom;verticalAlign=top;html=1;" parent="1" vertex="1">
          <mxGeometry x="-10" y="815" width="30" height="60" as="geometry" />
        </mxCell>
        <mxCell id="TUw20xL3SOrRMRf1-5aS-13" value="&lt;font style=&quot;vertical-align: inherit;&quot;&gt;&lt;font style=&quot;vertical-align: inherit;&quot;&gt;ANALISTA DE DADOS&lt;/font&gt;&lt;/font&gt;" style="shape=umlActor;verticalLabelPosition=bottom;verticalAlign=top;html=1;" parent="1" vertex="1">
          <mxGeometry x="-10" y="915" width="30" height="50" as="geometry" />
        </mxCell>
        <mxCell id="RnF2m4hXI7Ki_g6lQxmm-2" style="edgeStyle=orthogonalEdgeStyle;rounded=0;orthogonalLoop=1;jettySize=auto;html=1;" edge="1" parent="1" source="TUw20xL3SOrRMRf1-5aS-14" target="TUw20xL3SOrRMRf1-5aS-62">
          <mxGeometry relative="1" as="geometry" />
        </mxCell>
        <mxCell id="TUw20xL3SOrRMRf1-5aS-14" value="&lt;font style=&quot;vertical-align: inherit;&quot;&gt;&lt;font style=&quot;vertical-align: inherit;&quot;&gt;LOGIN&lt;/font&gt;&lt;/font&gt;" style="ellipse;whiteSpace=wrap;html=1;" parent="1" vertex="1">
          <mxGeometry x="300" y="10" width="140" height="70" as="geometry" />
        </mxCell>
        <mxCell id="TUw20xL3SOrRMRf1-5aS-39" value="&lt;font style=&quot;vertical-align: inherit;&quot;&gt;&lt;font style=&quot;vertical-align: inherit;&quot;&gt;PLANEJA A PRODUÇÃO&lt;/font&gt;&lt;/font&gt;" style="ellipse;whiteSpace=wrap;html=1;" parent="1" vertex="1">
          <mxGeometry x="300" y="110" width="140" height="70" as="geometry" />
        </mxCell>
        <mxCell id="TUw20xL3SOrRMRf1-5aS-40" value="" style="endArrow=none;dashed=1;html=1;rounded=0;entryX=0.333;entryY=0.75;entryDx=0;entryDy=0;entryPerimeter=0;exitX=1;exitY=0.5;exitDx=0;exitDy=0;" parent="1" source="TUw20xL3SOrRMRf1-5aS-39" target="TUw20xL3SOrRMRf1-5aS-5" edge="1">
          <mxGeometry width="50" height="50" relative="1" as="geometry">
            <mxPoint x="410" y="210" as="sourcePoint" />
            <mxPoint x="460" y="160" as="targetPoint" />
          </mxGeometry>
        </mxCell>
        <mxCell id="RnF2m4hXI7Ki_g6lQxmm-17" value="iinclude" style="edgeLabel;html=1;align=center;verticalAlign=middle;resizable=0;points=[];" vertex="1" connectable="0" parent="TUw20xL3SOrRMRf1-5aS-40">
          <mxGeometry x="-0.1221" relative="1" as="geometry">
            <mxPoint x="1" as="offset" />
          </mxGeometry>
        </mxCell>
        <mxCell id="TUw20xL3SOrRMRf1-5aS-41" value="&lt;font style=&quot;vertical-align: inherit;&quot;&gt;&lt;font style=&quot;vertical-align: inherit;&quot;&gt;ACOMPANHA O PROCESSO DE PRODUÇÃO&lt;/font&gt;&lt;/font&gt;" style="ellipse;whiteSpace=wrap;html=1;" parent="1" vertex="1">
          <mxGeometry x="300" y="198" width="140" height="70" as="geometry" />
        </mxCell>
        <mxCell id="TUw20xL3SOrRMRf1-5aS-42" value="" style="endArrow=none;dashed=1;html=1;rounded=0;entryX=0.4;entryY=0.75;entryDx=0;entryDy=0;entryPerimeter=0;" parent="1" target="TUw20xL3SOrRMRf1-5aS-4" edge="1">
          <mxGeometry width="50" height="50" relative="1" as="geometry">
            <mxPoint x="410" y="210" as="sourcePoint" />
            <mxPoint x="460" y="160" as="targetPoint" />
          </mxGeometry>
        </mxCell>
        <mxCell id="RnF2m4hXI7Ki_g6lQxmm-16" value="include" style="edgeLabel;html=1;align=center;verticalAlign=middle;resizable=0;points=[];" vertex="1" connectable="0" parent="TUw20xL3SOrRMRf1-5aS-42">
          <mxGeometry x="0.0381" relative="1" as="geometry">
            <mxPoint as="offset" />
          </mxGeometry>
        </mxCell>
        <mxCell id="TUw20xL3SOrRMRf1-5aS-43" value="&lt;font style=&quot;vertical-align: inherit;&quot;&gt;&lt;font style=&quot;vertical-align: inherit;&quot;&gt;&lt;font style=&quot;vertical-align: inherit;&quot;&gt;&lt;font style=&quot;vertical-align: inherit;&quot;&gt;CONTROLA O ESTOQUE&lt;/font&gt;&lt;/font&gt;&lt;/font&gt;&lt;/font&gt;" style="ellipse;whiteSpace=wrap;html=1;" parent="1" vertex="1">
          <mxGeometry x="300" y="280" width="140" height="70" as="geometry" />
        </mxCell>
        <mxCell id="TUw20xL3SOrRMRf1-5aS-44" value="" style="endArrow=none;dashed=1;html=1;rounded=0;entryX=0.5;entryY=0.5;entryDx=0;entryDy=0;entryPerimeter=0;" parent="1" target="TUw20xL3SOrRMRf1-5aS-3" edge="1">
          <mxGeometry width="50" height="50" relative="1" as="geometry">
            <mxPoint x="440" y="310" as="sourcePoint" />
            <mxPoint x="460" y="260" as="targetPoint" />
          </mxGeometry>
        </mxCell>
        <mxCell id="RnF2m4hXI7Ki_g6lQxmm-13" value="include" style="edgeLabel;html=1;align=center;verticalAlign=middle;resizable=0;points=[];" vertex="1" connectable="0" parent="TUw20xL3SOrRMRf1-5aS-44">
          <mxGeometry x="-0.1325" y="3" relative="1" as="geometry">
            <mxPoint as="offset" />
          </mxGeometry>
        </mxCell>
        <mxCell id="TUw20xL3SOrRMRf1-5aS-45" value="&lt;font style=&quot;vertical-align: inherit;&quot;&gt;&lt;font style=&quot;vertical-align: inherit;&quot;&gt;&lt;font style=&quot;vertical-align: inherit;&quot;&gt;&lt;font style=&quot;vertical-align: inherit;&quot;&gt;&lt;font style=&quot;vertical-align: inherit;&quot;&gt;&lt;font style=&quot;vertical-align: inherit;&quot;&gt;CONTROLA A QUALIDADE DOS MATERIAIS&lt;/font&gt;&lt;/font&gt;&lt;/font&gt;&lt;/font&gt;&lt;/font&gt;&lt;/font&gt;" style="ellipse;whiteSpace=wrap;html=1;" parent="1" vertex="1">
          <mxGeometry x="300" y="360" width="140" height="70" as="geometry" />
        </mxCell>
        <mxCell id="TUw20xL3SOrRMRf1-5aS-48" value="&lt;font style=&quot;vertical-align: inherit;&quot;&gt;&lt;font style=&quot;vertical-align: inherit;&quot;&gt;AGENDA E REGISTRA A MANUTENÇÃO&lt;/font&gt;&lt;/font&gt;" style="ellipse;whiteSpace=wrap;html=1;" parent="1" vertex="1">
          <mxGeometry x="300" y="440" width="140" height="70" as="geometry" />
        </mxCell>
        <mxCell id="TUw20xL3SOrRMRf1-5aS-49" value="" style="endArrow=none;dashed=1;html=1;rounded=0;entryX=0.5;entryY=0.5;entryDx=0;entryDy=0;entryPerimeter=0;" parent="1" source="TUw20xL3SOrRMRf1-5aS-48" target="TUw20xL3SOrRMRf1-5aS-1" edge="1">
          <mxGeometry width="50" height="50" relative="1" as="geometry">
            <mxPoint x="410" y="410" as="sourcePoint" />
            <mxPoint x="460" y="360" as="targetPoint" />
          </mxGeometry>
        </mxCell>
        <mxCell id="RnF2m4hXI7Ki_g6lQxmm-19" value="include" style="edgeLabel;html=1;align=center;verticalAlign=middle;resizable=0;points=[];" vertex="1" connectable="0" parent="TUw20xL3SOrRMRf1-5aS-49">
          <mxGeometry x="-0.0531" relative="1" as="geometry">
            <mxPoint as="offset" />
          </mxGeometry>
        </mxCell>
        <mxCell id="TUw20xL3SOrRMRf1-5aS-50" value="&lt;font style=&quot;vertical-align: inherit;&quot;&gt;&lt;font style=&quot;vertical-align: inherit;&quot;&gt;&lt;font style=&quot;vertical-align: inherit;&quot;&gt;&lt;font style=&quot;vertical-align: inherit;&quot;&gt;CADASTRA E GERENCIA OS FORNECEDORES&lt;/font&gt;&lt;/font&gt;&lt;/font&gt;&lt;/font&gt;" style="ellipse;whiteSpace=wrap;html=1;" parent="1" vertex="1">
          <mxGeometry x="300" y="530" width="140" height="70" as="geometry" />
        </mxCell>
        <mxCell id="TUw20xL3SOrRMRf1-5aS-53" value="" style="endArrow=none;dashed=1;html=1;rounded=0;entryX=0.5;entryY=0.5;entryDx=0;entryDy=0;entryPerimeter=0;exitX=0;exitY=0.5;exitDx=0;exitDy=0;" parent="1" source="TUw20xL3SOrRMRf1-5aS-50" target="TUw20xL3SOrRMRf1-5aS-6" edge="1">
          <mxGeometry width="50" height="50" relative="1" as="geometry">
            <mxPoint x="290" y="560" as="sourcePoint" />
            <mxPoint x="460" y="460" as="targetPoint" />
            <Array as="points" />
          </mxGeometry>
        </mxCell>
        <mxCell id="RnF2m4hXI7Ki_g6lQxmm-24" value="include" style="edgeLabel;html=1;align=center;verticalAlign=middle;resizable=0;points=[];" vertex="1" connectable="0" parent="TUw20xL3SOrRMRf1-5aS-53">
          <mxGeometry x="-0.0511" y="1" relative="1" as="geometry">
            <mxPoint x="5" y="3" as="offset" />
          </mxGeometry>
        </mxCell>
        <mxCell id="TUw20xL3SOrRMRf1-5aS-54" value="&lt;font style=&quot;vertical-align: inherit;&quot;&gt;&lt;font style=&quot;vertical-align: inherit;&quot;&gt;&lt;font style=&quot;vertical-align: inherit;&quot;&gt;&lt;font style=&quot;vertical-align: inherit;&quot;&gt;&lt;font style=&quot;vertical-align: inherit;&quot;&gt;&lt;font style=&quot;vertical-align: inherit;&quot;&gt;RECEBER E PROCESSAR PEDIDOS DE PRODUTOS&lt;/font&gt;&lt;/font&gt;&lt;/font&gt;&lt;/font&gt;&lt;/font&gt;&lt;/font&gt;" style="ellipse;whiteSpace=wrap;html=1;" parent="1" vertex="1">
          <mxGeometry x="300" y="610" width="140" height="70" as="geometry" />
        </mxCell>
        <mxCell id="TUw20xL3SOrRMRf1-5aS-55" value="" style="endArrow=none;dashed=1;html=1;rounded=0;exitX=0.333;exitY=0.9;exitDx=0;exitDy=0;exitPerimeter=0;entryX=0.071;entryY=0.429;entryDx=0;entryDy=0;entryPerimeter=0;" parent="1" source="TUw20xL3SOrRMRf1-5aS-7" target="TUw20xL3SOrRMRf1-5aS-54" edge="1">
          <mxGeometry width="50" height="50" relative="1" as="geometry">
            <mxPoint x="410" y="210" as="sourcePoint" />
            <mxPoint x="460" y="160" as="targetPoint" />
          </mxGeometry>
        </mxCell>
        <mxCell id="RnF2m4hXI7Ki_g6lQxmm-23" value="include" style="edgeLabel;html=1;align=center;verticalAlign=middle;resizable=0;points=[];" vertex="1" connectable="0" parent="TUw20xL3SOrRMRf1-5aS-55">
          <mxGeometry x="-0.0176" y="2" relative="1" as="geometry">
            <mxPoint x="1" as="offset" />
          </mxGeometry>
        </mxCell>
        <mxCell id="TUw20xL3SOrRMRf1-5aS-57" value="&lt;font style=&quot;vertical-align: inherit;&quot;&gt;&lt;font style=&quot;vertical-align: inherit;&quot;&gt;&lt;font style=&quot;vertical-align: inherit;&quot;&gt;&lt;font style=&quot;vertical-align: inherit;&quot;&gt;&lt;font style=&quot;vertical-align: inherit;&quot;&gt;&lt;font style=&quot;vertical-align: inherit;&quot;&gt;&lt;font style=&quot;vertical-align: inherit;&quot;&gt;&lt;font style=&quot;vertical-align: inherit;&quot;&gt;REGISTRA O CONTROLE DE RESIDUOS&lt;/font&gt;&lt;/font&gt;&lt;/font&gt;&lt;/font&gt;&lt;/font&gt;&lt;/font&gt;&lt;/font&gt;&lt;/font&gt;" style="ellipse;whiteSpace=wrap;html=1;" parent="1" vertex="1">
          <mxGeometry x="300" y="800" width="140" height="70" as="geometry" />
        </mxCell>
        <mxCell id="TUw20xL3SOrRMRf1-5aS-59" value="&lt;font style=&quot;vertical-align: inherit;&quot;&gt;&lt;font style=&quot;vertical-align: inherit;&quot;&gt;&lt;font style=&quot;vertical-align: inherit;&quot;&gt;&lt;font style=&quot;vertical-align: inherit;&quot;&gt;&lt;font style=&quot;vertical-align: inherit;&quot;&gt;&lt;font style=&quot;vertical-align: inherit;&quot;&gt;&lt;font style=&quot;vertical-align: inherit;&quot;&gt;&lt;font style=&quot;vertical-align: inherit;&quot;&gt;MONITORAMENTO DE CUSTOS DE PRODUÇÃO&lt;/font&gt;&lt;/font&gt;&lt;/font&gt;&lt;/font&gt;&lt;/font&gt;&lt;/font&gt;&lt;/font&gt;&lt;/font&gt;" style="ellipse;whiteSpace=wrap;html=1;" parent="1" vertex="1">
          <mxGeometry x="300" y="700" width="140" height="70" as="geometry" />
        </mxCell>
        <mxCell id="TUw20xL3SOrRMRf1-5aS-60" value="" style="endArrow=none;dashed=1;html=1;rounded=0;exitX=1;exitY=1;exitDx=0;exitDy=0;exitPerimeter=0;entryX=0;entryY=0;entryDx=0;entryDy=0;" parent="1" source="TUw20xL3SOrRMRf1-5aS-8" target="TUw20xL3SOrRMRf1-5aS-59" edge="1">
          <mxGeometry width="50" height="50" relative="1" as="geometry">
            <mxPoint x="410" y="510" as="sourcePoint" />
            <mxPoint x="460" y="460" as="targetPoint" />
          </mxGeometry>
        </mxCell>
        <mxCell id="RnF2m4hXI7Ki_g6lQxmm-22" value="include" style="edgeLabel;html=1;align=center;verticalAlign=middle;resizable=0;points=[];" vertex="1" connectable="0" parent="TUw20xL3SOrRMRf1-5aS-60">
          <mxGeometry x="-0.1198" y="1" relative="1" as="geometry">
            <mxPoint as="offset" />
          </mxGeometry>
        </mxCell>
        <mxCell id="TUw20xL3SOrRMRf1-5aS-61" value="" style="endArrow=none;dashed=1;html=1;rounded=0;exitX=1;exitY=1;exitDx=0;exitDy=0;exitPerimeter=0;entryX=0;entryY=0;entryDx=0;entryDy=0;" parent="1" source="TUw20xL3SOrRMRf1-5aS-11" target="TUw20xL3SOrRMRf1-5aS-57" edge="1">
          <mxGeometry width="50" height="50" relative="1" as="geometry">
            <mxPoint x="410" y="510" as="sourcePoint" />
            <mxPoint x="460" y="460" as="targetPoint" />
          </mxGeometry>
        </mxCell>
        <mxCell id="RnF2m4hXI7Ki_g6lQxmm-21" value="include" style="edgeLabel;html=1;align=center;verticalAlign=middle;resizable=0;points=[];" vertex="1" connectable="0" parent="TUw20xL3SOrRMRf1-5aS-61">
          <mxGeometry x="0.0723" y="3" relative="1" as="geometry">
            <mxPoint as="offset" />
          </mxGeometry>
        </mxCell>
        <mxCell id="TUw20xL3SOrRMRf1-5aS-62" value="&lt;font style=&quot;vertical-align: inherit;&quot;&gt;&lt;font style=&quot;vertical-align: inherit;&quot;&gt;GERAÇÃO DE RELATORIOS PERSONALIZADOS&lt;/font&gt;&lt;/font&gt;" style="ellipse;whiteSpace=wrap;html=1;" parent="1" vertex="1">
          <mxGeometry x="300" y="890" width="140" height="70" as="geometry" />
        </mxCell>
        <mxCell id="TUw20xL3SOrRMRf1-5aS-63" value="" style="endArrow=none;dashed=1;html=1;rounded=0;exitX=0.667;exitY=0.9;exitDx=0;exitDy=0;exitPerimeter=0;entryX=0.007;entryY=0.314;entryDx=0;entryDy=0;entryPerimeter=0;" parent="1" source="TUw20xL3SOrRMRf1-5aS-13" target="TUw20xL3SOrRMRf1-5aS-62" edge="1">
          <mxGeometry width="50" height="50" relative="1" as="geometry">
            <mxPoint x="410" y="610" as="sourcePoint" />
            <mxPoint x="460" y="560" as="targetPoint" />
          </mxGeometry>
        </mxCell>
        <mxCell id="RnF2m4hXI7Ki_g6lQxmm-20" value="include" style="edgeLabel;html=1;align=center;verticalAlign=middle;resizable=0;points=[];" vertex="1" connectable="0" parent="TUw20xL3SOrRMRf1-5aS-63">
          <mxGeometry x="0.1273" y="-2" relative="1" as="geometry">
            <mxPoint as="offset" />
          </mxGeometry>
        </mxCell>
        <mxCell id="f0nKH0ThOuTonNKVmOt8-1" value="&lt;font style=&quot;vertical-align: inherit;&quot;&gt;&lt;font style=&quot;vertical-align: inherit;&quot;&gt;CLIENTE&lt;/font&gt;&lt;/font&gt;" style="shape=umlActor;verticalLabelPosition=bottom;verticalAlign=top;html=1;" parent="1" vertex="1">
          <mxGeometry x="720" y="240" width="30" height="60" as="geometry" />
        </mxCell>
        <mxCell id="RnF2m4hXI7Ki_g6lQxmm-6" value="" style="endArrow=none;dashed=1;html=1;rounded=0;exitX=1;exitY=0.5;exitDx=0;exitDy=0;" edge="1" parent="1" source="TUw20xL3SOrRMRf1-5aS-41">
          <mxGeometry width="50" height="50" relative="1" as="geometry">
            <mxPoint x="670" y="318" as="sourcePoint" />
            <mxPoint x="720" y="268" as="targetPoint" />
          </mxGeometry>
        </mxCell>
        <mxCell id="RnF2m4hXI7Ki_g6lQxmm-7" value="i" style="edgeLabel;html=1;align=center;verticalAlign=middle;resizable=0;points=[];" vertex="1" connectable="0" parent="RnF2m4hXI7Ki_g6lQxmm-6">
          <mxGeometry x="-0.0013" y="1" relative="1" as="geometry">
            <mxPoint as="offset" />
          </mxGeometry>
        </mxCell>
        <mxCell id="RnF2m4hXI7Ki_g6lQxmm-10" value="include" style="edgeLabel;html=1;align=center;verticalAlign=middle;resizable=0;points=[];" vertex="1" connectable="0" parent="RnF2m4hXI7Ki_g6lQxmm-6">
          <mxGeometry x="0.0259" y="3" relative="1" as="geometry">
            <mxPoint as="offset" />
          </mxGeometry>
        </mxCell>
        <mxCell id="RnF2m4hXI7Ki_g6lQxmm-12" value="" style="endArrow=none;dashed=1;html=1;rounded=0;exitX=1;exitY=0.5;exitDx=0;exitDy=0;" edge="1" parent="1" source="RnF2m4hXI7Ki_g6lQxmm-14" target="TUw20xL3SOrRMRf1-5aS-2">
          <mxGeometry width="50" height="50" relative="1" as="geometry">
            <mxPoint x="430" y="415" as="sourcePoint" />
            <mxPoint x="480" y="365" as="targetPoint" />
          </mxGeometry>
        </mxCell>
        <mxCell id="RnF2m4hXI7Ki_g6lQxmm-15" value="" style="endArrow=none;dashed=1;html=1;rounded=0;exitX=1;exitY=0.5;exitDx=0;exitDy=0;" edge="1" parent="1" source="TUw20xL3SOrRMRf1-5aS-45" target="RnF2m4hXI7Ki_g6lQxmm-14">
          <mxGeometry width="50" height="50" relative="1" as="geometry">
            <mxPoint x="440" y="395" as="sourcePoint" />
            <mxPoint x="730" y="495" as="targetPoint" />
          </mxGeometry>
        </mxCell>
        <mxCell id="RnF2m4hXI7Ki_g6lQxmm-14" value="include" style="text;html=1;align=center;verticalAlign=middle;resizable=0;points=[];autosize=1;strokeColor=none;fillColor=none;" vertex="1" parent="1">
          <mxGeometry x="550" y="430" width="60" height="30" as="geometry" />
        </mxCell>
      </root>
    </mxGraphModel>
  </diagram>
</mxfile>
